{"title":"Fire.Twister.2015.DVDRip.x264-MenaceIISociety","uid":12202197,"size":1308082229,"categoryP":"video","categoryS":"movies","magnet":"?xt=urn:btih:1b4e516b5bf316204c3716a080ea29497d25c66b&amp;dn=Fire.Twister.2015.DVDRip.x264-MenaceIISociety&amp;tr=udp%3A%2F%2Ftracker.openbittorrent.com%3A80&amp;tr=udp%3A%2F%2Fopen.demonii.com%3A1337&amp;tr=udp%3A%2F%2Ftracker.coppersurfer.tk%3A6969&amp;tr=udp%3A%2F%2Fexodus.desync.com%3A6969","seeders":11,"leechers":5,"uploader":"xxxlavalxxx","files":4,"time":1438856374,"description":" &lt;a href=&quot;http://extraimago.com/image/SR8&quot; rel=&quot;nofollow&quot; target=&quot;_NEW&quot;&gt;http://extraimago.com/image/SR8&lt;/a&gt;\n &lt;a href=&quot;\nhttp://www.imdb.com/title/tt3350436/&quot; rel=&quot;nofollow&quot; target=&quot;_NEW&quot;&gt;\nhttp://www.imdb.com/title/tt3350436/&lt;/a&gt;\n\n\nWhen a mysterious orb of light strikes a deep water oil rig, the massive explosion erupts into a ball of flames creating a swirling mass of clouds and fire. As the twister begins to move towards land, its power swells in size and fury. Anything but natural, it appears the fiery twister is being controlled and manipulated in a plot to create the ultimate terror attack!. As the fiery twister sweeps through Los Angeles leaving the city in ruins, a ragtag group of strangers must come together to stop the twister's creators and destroy the ultimate fire twister.\n\nDirector: George Erschbamer\nWriter: Larry Bain\nStars: Ryan Barr, Leah Bateman, Jacob Chambers \nGenres: Action | Adventure | Thriller\nCountry: USA | Canada\nLanguage: English\n\n\nFire.Twister.2015.DVDRip.x264-MenaceIISociety\n &lt;a href=&quot;\nhttp://www.imdb.com/title/tt3350436/&quot; rel=&quot;nofollow&quot; target=&quot;_NEW&quot;&gt;\nhttp://www.imdb.com/title/tt3350436/&lt;/a&gt;\nSource: R3.DVD5-MASTER [THANKS]\n\nGeneral\nComplete name: Fire.Twister.2015.DVDRip.x264-MenaceIISociety.mp4\nFormat: MPEG-4\nFormat profile: Base Media\nCodec ID: isom\nFile size: 1.18 GiB\nDuration: 1h 22mn\nOverall bit rate mode: Variable\nOverall bit rate: 2 051 Kbps\nEncoded date: UTC 2015-08-06 07:22:06\nTagged date: UTC 2015-08-06 07:22:06\n\nVideo\nID: 1\nFormat: AVC\nFormat/Info: Advanced Video Codec\nFormat profile: &lt;a class=&quot;__cf_email__&quot; href=&quot;/cdn-cgi/l/email-protection&quot; data-cfemail=&quot;81c9e8e6e9c1cdb5afb0&quot;&gt;[email&amp;#160;protected]&lt;/a&gt;&lt;script data-cfhash='f9e31' type=&quot;text/javascript&quot;&gt;\n/* &lt;![CDATA[ */!function(){try{var t=&quot;currentScript&quot;in document?document.currentScript:function(){for(var t=document.getElementsByTagName(&quot;script&quot;),e=t.length;e--;)if(t[e].getAttribute(&quot;data-cfhash&quot;))return t[e]}();if(t&amp;&amp;t.previousSibling){var e,r,n,i,c=t.previousSibling,a=c.getAttribute(&quot;data-cfemail&quot;);if(a){for(e=&quot;&quot;,r=parseInt(a.substr(0,2),16),n=2;a.length-n;n+=2)i=parseInt(a.substr(n,2),16)^r,e+=String.fromCharCode(i);e=document.createTextNode(e),c.parentNode.replaceChild(e,c)}t.parentNode.removeChild(t);}}catch(u){}}()/* ]]&gt; */&lt;/script&gt;\nFormat settings, CABAC: Yes\nFormat settings, ReFrames: 3 frames\nCodec ID: avc1\nCodec ID/Info: Advanced Video Coding\nDuration: 1h 22mn\nBit rate mode: Variable\nBit rate: 1 692 Kbps\nMaximum bit rate: 40.0 Mbps\nWidth: 720 pixels\nHeight: 400 pixels\nDisplay aspect ratio: 16:9\nFrame rate mode: Constant\nFrame rate: 25.000 fps\nColor space: YUV\nChroma subsampling: 4:2:0\nBit depth: 8 bits\nScan type: Progressive\nBits/(Pixel*Frame): 0.235\nStream size: 996 MiB (83%)\nWriting library: x264 core 148 r2579 73ae2d1\n\nAudio\nID: 2\nFormat: AAC\nFormat/Info: Advanced Audio Codec\nFormat profile: LC\nCodec ID: 40\nDuration: 1h 22mn\nBit rate mode: Variable\nBit rate: 353 Kbps\nMaximum bit rate: 397 Kbps\nChannel(s): 6 channels\nChannel positions: Front: L C R, Side: L R, LFE\nSampling rate: 48.0 KHz\nCompression mode: Lossy\nStream size: 208 MiB (17%)\nLanguage: English\nEncoded date: UTC 2015-08-06 06:18:42\nTagged date: UTC 2015-08-06 07:22:59 \n\n &lt;a href=&quot;\nhttp://extraimago.com/image/SQV&quot; rel=&quot;nofollow&quot; target=&quot;_NEW&quot;&gt;\nhttp://extraimago.com/image/SQV&lt;/a&gt; &lt;a href=&quot;\nhttp://extraimago.com/image/SQu&quot; rel=&quot;nofollow&quot; target=&quot;_NEW&quot;&gt;\nhttp://extraimago.com/image/SQu&lt;/a&gt; &lt;a href=&quot;\nhttp://extraimago.com/image/SQv&quot; rel=&quot;nofollow&quot; target=&quot;_NEW&quot;&gt;\nhttp://extraimago.com/image/SQv&lt;/a&gt; &lt;a href=&quot;\nhttp://extraimago.com/image/SQA&quot; rel=&quot;nofollow&quot; target=&quot;_NEW&quot;&gt;\nhttp://extraimago.com/image/SQA&lt;/a&gt; &lt;a href=&quot;\nhttp://extraimago.com/image/SQW&quot; rel=&quot;nofollow&quot; target=&quot;_NEW&quot;&gt;\nhttp://extraimago.com/image/SQW&lt;/a&gt; &lt;a href=&quot;\nhttp://extraimago.com/image/SQf&quot; rel=&quot;nofollow&quot; target=&quot;_NEW&quot;&gt;\nhttp://extraimago.com/image/SQf&lt;/a&gt;","torrent":{"xt":"urn:btih:1b4e516b5bf316204c3716a080ea29497d25c66b","amp;dn":"Fire.Twister.2015.DVDRip.x264-MenaceIISociety","amp;tr":["udp%3A%2F%2Ftracker.openbittorrent.com%3A80","udp%3A%2F%2Fopen.demonii.com%3A1337","udp%3A%2F%2Ftracker.coppersurfer.tk%3A6969","udp%3A%2F%2Fexodus.desync.com%3A6969"],"infoHash":"1b4e516b5bf316204c3716a080ea29497d25c66b","infoHashBuffer":{"type":"Buffer","data":[27,78,81,107,91,243,22,32,76,55,22,160,128,234,41,73,125,37,198,107]},"announce":[],"urlList":[]}}